<svg id="visual" viewBox="0 0 3840 2160" width="3840" height="2160" xmlns="http://www.w3.org/2000/svg" xmlns:xlink="http://www.w3.org/1999/xlink" version="1.1"><rect x="0" y="0" width="3840" height="2160" fill="#001122"></rect><path d="M0 1250L549 1250L549 1163L1097 1163L1097 1019L1646 1019L1646 1220L2194 1220L2194 1273L2743 1273L2743 911L3291 911L3291 1277L3840 1277L3840 1166L3840 2161L3840 2161L3291 2161L3291 2161L2743 2161L2743 2161L2194 2161L2194 2161L1646 2161L1646 2161L1097 2161L1097 2161L549 2161L549 2161L0 2161Z" fill="#0e253c"></path><path d="M0 1431L549 1431L549 1252L1097 1252L1097 1333L1646 1333L1646 1430L2194 1430L2194 1597L2743 1597L2743 1381L3291 1381L3291 1335L3840 1335L3840 1252L3840 2161L3840 2161L3291 2161L3291 2161L2743 2161L2743 2161L2194 2161L2194 2161L1646 2161L1646 2161L1097 2161L1097 2161L549 2161L549 2161L0 2161Z" fill="#071b2f"></path><path d="M0 1688L549 1688L549 1622L1097 1622L1097 1679L1646 1679L1646 1746L2194 1746L2194 1772L2743 1772L2743 1949L3291 1949L3291 1903L3840 1903L3840 1667L3840 2161L3840 2161L3291 2161L3291 2161L2743 2161L2743 2161L2194 2161L2194 2161L1646 2161L1646 2161L1097 2161L1097 2161L549 2161L549 2161L0 2161Z" fill="#001122"></path></svg>